<svg width="100%" height="100%" viewBox="0 0 20 20" fill="none" xmlns="http://www.w3.org/2000/svg">
<path d="M6.25001 9.16667H3.83334C3.36663 9.16667 3.13327 9.16667 2.95501 9.25749C2.79821 9.33739 2.67073 9.46487 2.59083 9.62167C2.50001 9.79993 2.50001 10.0333 2.50001 10.5V17.5M13.75 9.16667H16.1667C16.6334 9.16667 16.8667 9.16667 17.045 9.25749C17.2018 9.33739 17.3293 9.46487 17.4092 9.62167C17.5 9.79993 17.5 10.0333 17.5 10.5V17.5M13.75 17.5V5.16667C13.75 4.23325 13.75 3.76654 13.5683 3.41002C13.4086 3.09641 13.1536 2.84144 12.84 2.68166C12.4835 2.5 12.0168 2.5 11.0833 2.5H8.91667C7.98325 2.5 7.51654 2.5 7.16002 2.68166C6.84642 2.84144 6.59145 3.09641 6.43166 3.41002C6.25001 3.76654 6.25001 4.23325 6.25001 5.16667V17.5M18.3333 17.5H1.66667M9.16667 5.83333H10.8333M9.16667 9.16667H10.8333M9.16667 12.5H10.8333" stroke="#667085" stroke-width="1.67" stroke-linecap="round" stroke-linejoin="round"/>
</svg>
