<svg width="8" height="16" viewBox="0 0 8 16" fill="none" xmlns="http://www.w3.org/2000/svg">
    <g clip-path="url(#clip0_10562_72710)">
        <path d="M5.5 13C5.5 13.3978 5.34196 13.7794 5.06066 14.0607C4.77936 14.342 4.39782 14.5 4 14.5C3.60217 14.5 3.22064 14.342 2.93934 14.0607C2.65803 13.7794 2.5 13.3978 2.5 13C2.5 12.6022 2.65803 12.2206 2.93934 11.9393C3.22064 11.658 3.60217 11.5 4 11.5C4.39782 11.5 4.77936 11.658 5.06066 11.9393C5.34196 12.2206 5.5 12.6022 5.5 13ZM5.5 8C5.5 8.39782 5.34196 8.77936 5.06066 9.06066C4.77936 9.34196 4.39782 9.5 4 9.5C3.60217 9.5 3.22064 9.34196 2.93934 9.06066C2.65803 8.77936 2.5 8.39782 2.5 8C2.5 7.60218 2.65803 7.22064 2.93934 6.93934C3.22064 6.65804 3.60218 6.5 4 6.5C4.39782 6.5 4.77936 6.65804 5.06066 6.93934C5.34196 7.22064 5.5 7.60218 5.5 8ZM5.5 3C5.5 3.39782 5.34196 3.77936 5.06066 4.06066C4.77936 4.34196 4.39782 4.5 4 4.5C3.60218 4.5 3.22064 4.34196 2.93934 4.06066C2.65803 3.77936 2.5 3.39782 2.5 3C2.5 2.60218 2.65804 2.22064 2.93934 1.93934C3.22064 1.65804 3.60218 1.5 4 1.5C4.39782 1.5 4.77936 1.65804 5.06066 1.93934C5.34196 2.22064 5.5 2.60218 5.5 3Z" fill="#98A2B3"/>
    </g>
    <defs>
        <clipPath id="clip0_10562_72710">
            <rect width="16" height="8" fill="white" transform="translate(8) rotate(90)"/>
        </clipPath>
    </defs>
</svg>
