<svg width="16" height="16" viewBox="0 0 16 16" fill="none" xmlns="http://www.w3.org/2000/svg">
<path d="M8 13.3341H14M2.00002 13.3341H3.11638C3.4425 13.3341 3.60556 13.3341 3.75901 13.2973C3.89506 13.2646 4.02512 13.2108 4.14441 13.1377C4.27897 13.0552 4.39427 12.9399 4.62487 12.7093L13 4.33414C13.5523 3.78185 13.5523 2.88642 13 2.33413C12.4477 1.78185 11.5523 1.78185 11 2.33414L2.62486 10.7093C2.39425 10.9399 2.27895 11.0552 2.1965 11.1898C2.12339 11.3091 2.06952 11.4391 2.03686 11.5752C2.00002 11.7286 2.00002 11.8917 2.00002 12.2178V13.3341Z" stroke="#1A40FF" stroke-width="1.33" stroke-linecap="round" stroke-linejoin="round"/>
</svg>
