<svg width="16" height="16" viewBox="0 0 16 16" fill="none" xmlns="http://www.w3.org/2000/svg">
<path d="M13.3333 6.33398V4.53398C13.3333 3.41388 13.3333 2.85383 13.1153 2.426C12.9236 2.04968 12.6176 1.74372 12.2413 1.55197C11.8135 1.33398 11.2534 1.33398 10.1333 1.33398H5.86666C4.74656 1.33398 4.18651 1.33398 3.75868 1.55197C3.38236 1.74372 3.0764 2.04968 2.88465 2.426C2.66666 2.85383 2.66666 3.41388 2.66666 4.53398V11.4673C2.66666 12.5874 2.66666 13.1475 2.88465 13.5753C3.0764 13.9516 3.38236 14.2576 3.75868 14.4493C4.18651 14.6673 4.74656 14.6673 5.86666 14.6673H9.33333M9.33333 7.33398H5.33333M6.66666 10.0007H5.33333M10.6667 4.66732H5.33333M11 10.0021C11.1175 9.66823 11.3493 9.38665 11.6545 9.2073C11.9597 9.02795 12.3185 8.96239 12.6673 9.02223C13.0162 9.08207 13.3327 9.26346 13.5606 9.53425C13.7886 9.80505 13.9134 10.1478 13.9128 10.5018C13.9128 11.501 12.4139 12.0007 12.4139 12.0007M12.4333 14.0007H12.4399" stroke="#344054" stroke-width="1.67" stroke-linecap="round" stroke-linejoin="round"/>
</svg>
