<svg width="100%" height="100%" viewBox="0 0 40 40" fill="none" xmlns="http://www.w3.org/2000/svg">
<rect width="40" height="40" transform="translate(0.5)" fill="#1735E0"/>
<path d="M31.811 18.509L33.493 19.4238C33.5968 19.4801 33.6827 19.5599 33.7423 19.6553C33.8019 19.7507 33.8333 19.8585 33.8333 19.9681C33.8333 20.0778 33.8019 20.1856 33.7423 20.281C33.6827 20.3763 33.5968 20.4561 33.493 20.5124L20.5 27.5808L7.50692 20.5124C7.40315 20.4561 7.31725 20.3763 7.25761 20.281C7.19797 20.1856 7.16663 20.0778 7.16663 19.9681C7.16663 19.8585 7.19797 19.7507 7.25761 19.6553C7.31725 19.5599 7.40315 19.4801 7.50692 19.4238L9.18894 18.509L20.5 24.6626L31.811 18.509ZM31.811 24.4723L33.493 25.3871C33.5968 25.4434 33.6827 25.5231 33.7423 25.6185C33.8019 25.7139 33.8333 25.8217 33.8333 25.9314C33.8333 26.041 33.8019 26.1488 33.7423 26.2442C33.6827 26.3396 33.5968 26.4193 33.493 26.4757L21.2206 33.152C21.003 33.2705 20.7539 33.3332 20.5 33.3332C20.2461 33.3332 19.9969 33.2705 19.7793 33.152L7.50692 26.4757C7.40315 26.4193 7.31725 26.3396 7.25761 26.2442C7.19797 26.1488 7.16663 26.041 7.16663 25.9314C7.16663 25.8217 7.19797 25.7139 7.25761 25.6185C7.31725 25.5231 7.40315 25.4434 7.50692 25.3871L9.18894 24.4723L20.5 30.6258L31.811 24.4723ZM21.2192 6.8477L33.493 13.524C33.5968 13.5803 33.6827 13.6601 33.7423 13.7555C33.8019 13.8509 33.8333 13.9587 33.8333 14.0683C33.8333 14.178 33.8019 14.2857 33.7423 14.3811C33.6827 14.4765 33.5968 14.5563 33.493 14.6126L20.5 21.681L7.50692 14.6126C7.40315 14.5563 7.31725 14.4765 7.25761 14.3811C7.19797 14.2857 7.16663 14.178 7.16663 14.0683C7.16663 13.9587 7.19797 13.8509 7.25761 13.7555C7.31725 13.6601 7.40315 13.5803 7.50692 13.524L19.7793 6.8477C19.9969 6.72914 20.2461 6.6665 20.5 6.6665C20.7539 6.6665 21.0016 6.72914 21.2192 6.8477Z" fill="#F2F4F7"/>
</svg>
