<svg width="24" height="24" viewBox="0 0 24 24" fill="none" xmlns="http://www.w3.org/2000/svg">
    <path fill-rule="evenodd" clip-rule="evenodd" d="M12 3.79902C10.9789 3.79902 9.99965 4.20465 9.27764 4.92666C8.55562 5.64868 8.15 6.62794 8.15 7.64902C8.15 10.099 9.61 12.749 10.94 14.619C11.49 15.399 12.54 15.399 13.09 14.619C14.41 12.749 15.85 10.099 15.85 7.64902C15.85 7.14343 15.7504 6.6428 15.5569 6.17569C15.3635 5.70859 15.0799 5.28417 14.7224 4.92666C14.3649 4.56916 13.9404 4.28557 13.4733 4.09209C13.0062 3.89861 12.5056 3.79902 12 3.79902ZM6.35 7.64902C6.35 6.15055 6.94527 4.71345 8.00485 3.65387C9.06443 2.59429 10.5015 1.99902 12 1.99902C13.4985 1.99902 14.9356 2.59429 15.9952 3.65387C17.0547 4.71345 17.65 6.15055 17.65 7.64902C17.65 10.689 15.92 13.729 14.56 15.649C14.2791 16.0647 13.9008 16.4054 13.4582 16.6416C13.0156 16.8778 12.522 17.0023 12.0203 17.0043C11.5186 17.0063 11.024 16.8856 10.5795 16.6529C10.1351 16.4202 9.75419 16.0825 9.47 15.669C8.11 13.739 6.35 10.699 6.35 7.64902ZM13.75 7.74902C13.75 8.21315 13.5656 8.65827 13.2374 8.98646C12.9092 9.31465 12.4641 9.49902 12 9.49902C11.5359 9.49902 11.0908 9.31465 10.7626 8.98646C10.4344 8.65827 10.25 8.21315 10.25 7.74902C10.25 7.28489 10.4344 6.83978 10.7626 6.51159C11.0908 6.1834 11.5359 5.99902 12 5.99902C12.4641 5.99902 12.9092 6.1834 13.2374 6.51159C13.5656 6.83978 13.75 7.28489 13.75 7.74902ZM17.21 14.319C17.2868 14.229 17.3805 14.155 17.4859 14.1012C17.5913 14.0474 17.7063 14.015 17.8243 14.0057C17.9422 13.9964 18.0609 14.0104 18.1734 14.0471C18.2859 14.0837 18.3901 14.1421 18.48 14.219C19.3 14.909 20 15.799 20 16.999C20 18.749 18.94 20.039 17.47 20.839C15.7672 21.6621 13.8903 22.0601 12 21.999C9.91 21.999 7.97 21.569 6.52 20.759C5.08 19.939 4 18.659 4 16.999C4 15.809 4.71 14.899 5.51 14.219C5.5993 14.1415 5.70298 14.0824 5.81514 14.045C5.92729 14.0076 6.04571 13.9926 6.16364 14.001C6.28157 14.0094 6.3967 14.0409 6.50245 14.0937C6.60821 14.1466 6.70252 14.2197 6.78 14.309C6.85748 14.3983 6.91661 14.502 6.95402 14.6142C6.99143 14.7263 7.00638 14.8447 6.99803 14.9627C6.98967 15.0806 6.95816 15.1957 6.90531 15.3015C6.85246 15.4072 6.7793 15.5015 6.69 15.579C6.03 16.139 5.8 16.589 5.8 16.999C5.8 17.789 6.3 18.559 7.4 19.189C8.82569 19.9024 10.4066 20.2495 12 20.199C13.89 20.199 15.5 19.849 16.6 19.249C17.7 18.659 18.2 17.899 18.2 16.999C18.2 16.579 17.99 16.149 17.32 15.589C17.23 15.5123 17.1559 15.4185 17.1022 15.3131C17.0484 15.2077 17.0159 15.0927 17.0066 14.9748C16.9974 14.8568 17.0114 14.7382 17.048 14.6256C17.0846 14.5131 17.1431 14.4089 17.22 14.319H17.21Z" fill="#98A2B3"/>
</svg>
