<svg width="100%" height="100%" viewBox="0 0 24 24" fill="none" xmlns="http://www.w3.org/2000/svg">
<path d="M9 18V6.35543C9 5.87389 9 5.63312 9.0876 5.43784C9.16482 5.26571 9.28917 5.11893 9.44627 5.01446C9.62449 4.89594 9.86198 4.85636 10.337 4.7772L19.137 3.31053C19.7779 3.2037 20.0984 3.15029 20.3482 3.24306C20.5674 3.32447 20.7511 3.48011 20.8674 3.68292C21 3.91404 21 4.23895 21 4.88876V16M9 18C9 19.6569 7.65685 21 6 21C4.34315 21 3 19.6569 3 18C3 16.3432 4.34315 15 6 15C7.65685 15 9 16.3432 9 18ZM21 16C21 17.6569 19.6569 19 18 19C16.3431 19 15 17.6569 15 16C15 14.3432 16.3431 13 18 13C19.6569 13 21 14.3432 21 16Z" stroke="black" stroke-width="2" stroke-linecap="round" stroke-linejoin="round"/>
</svg>
