<svg width="100%" height="100%" viewBox="0 0 12 14" fill="none" xmlns="http://www.w3.org/2000/svg">
<path d="M1.33325 2.32618C1.33325 1.67874 1.33325 1.35502 1.46825 1.17657C1.58585 1.02111 1.7656 0.924908 1.96018 0.91329C2.18354 0.899953 2.45289 1.07952 2.9916 1.43866L10.002 6.11224C10.4471 6.40899 10.6697 6.55736 10.7472 6.74438C10.815 6.90788 10.815 7.09164 10.7472 7.25514C10.6697 7.44216 10.4471 7.59053 10.002 7.88728L2.9916 12.5609C2.45289 12.92 2.18354 13.0996 1.96018 13.0862C1.7656 13.0746 1.58585 12.9784 1.46825 12.823C1.33325 12.6445 1.33325 12.3208 1.33325 11.6733V2.32618Z" stroke="#344054" stroke-width="1.67" stroke-linecap="round" stroke-linejoin="round"/>
</svg>
