<svg width="16" height="17" viewBox="0 0 16 17" fill="none" xmlns="http://www.w3.org/2000/svg">
    <g clip-path="url(#clip0_10729_8081)">
        <path d="M7.3335 2.24756L9.3335 4.24756M9.3335 4.24756L7.3335 6.24756M9.3335 4.24756H4.5335C3.41339 4.24756 2.85334 4.24756 2.42552 4.46555C2.04919 4.65729 1.74323 4.96325 1.55148 5.33958C1.3335 5.7674 1.3335 6.32745 1.3335 7.44756V11.2476C1.3335 11.5572 1.3335 11.712 1.35061 11.8419C1.46876 12.7394 2.17498 13.4456 3.07244 13.5638C3.20241 13.5809 3.35722 13.5809 3.66683 13.5809M6.66683 13.5809H11.4668C12.5869 13.5809 13.147 13.5809 13.5748 13.3629C13.9511 13.1712 14.2571 12.8652 14.4488 12.4889C14.6668 12.0611 14.6668 11.501 14.6668 10.3809V6.58089C14.6668 6.27128 14.6668 6.11647 14.6497 5.98651C14.5316 5.08904 13.8253 4.38282 12.9279 4.26467C12.7979 4.24756 12.6431 4.24756 12.3335 4.24756M6.66683 13.5809L8.66683 15.5809M6.66683 13.5809L8.66683 11.5809" stroke="#344054" stroke-width="1.67" stroke-linecap="round" stroke-linejoin="round"/>
    </g>
    <defs>
        <clipPath id="clip0_10729_8081">
            <rect width="16" height="16" fill="white" transform="translate(0 0.914307)"/>
        </clipPath>
    </defs>
</svg>
