<svg width="21" height="20" viewBox="0 0 21 20" fill="none" xmlns="http://www.w3.org/2000/svg">
<path d="M8.32888 16.1424L8.81591 17.2378C8.9607 17.5639 9.19698 17.8409 9.4961 18.0353C9.79522 18.2298 10.1443 18.3332 10.5011 18.3332C10.8579 18.3332 11.207 18.2298 11.5061 18.0353C11.8052 17.8409 12.0415 17.5639 12.1863 17.2378L12.6733 16.1424C12.8467 15.7538 13.1383 15.4297 13.5067 15.2165C13.8773 15.0027 14.3061 14.9116 14.7317 14.9563L15.9233 15.0832C16.278 15.1207 16.636 15.0545 16.9539 14.8926C17.2717 14.7307 17.5358 14.4801 17.7141 14.1711C17.8925 13.8623 17.9776 13.5084 17.9588 13.1522C17.9401 12.7961 17.8184 12.453 17.6085 12.1647L16.9029 11.1952C16.6517 10.8474 16.5175 10.4289 16.5196 9.99984C16.5195 9.57199 16.655 9.15513 16.9067 8.8091L17.6122 7.83965C17.8221 7.5513 17.9438 7.20823 17.9625 6.85207C17.9813 6.4959 17.8962 6.14195 17.7178 5.83317C17.5395 5.5242 17.2754 5.27358 16.9576 5.11169C16.6397 4.94981 16.2817 4.88361 15.927 4.92113L14.7354 5.04799C14.3098 5.09268 13.881 5.00161 13.5104 4.7878C13.1413 4.57338 12.8496 4.24764 12.677 3.85725L12.1863 2.76187C12.0415 2.43581 11.8052 2.15877 11.5061 1.96434C11.207 1.76991 10.8579 1.66645 10.5011 1.6665C10.1443 1.66645 9.79522 1.76991 9.4961 1.96434C9.19698 2.15877 8.9607 2.43581 8.81591 2.76187L8.32888 3.85725C8.15632 4.24764 7.8646 4.57338 7.49554 4.7878C7.12489 5.00161 6.6961 5.09268 6.27054 5.04799L5.07517 4.92113C4.72045 4.88361 4.36246 4.94981 4.0446 5.11169C3.72675 5.27358 3.46269 5.5242 3.28443 5.83317C3.10595 6.14195 3.02092 6.4959 3.03965 6.85207C3.05839 7.20823 3.18009 7.5513 3.38999 7.83965L4.09554 8.8091C4.34716 9.15513 4.48266 9.57199 4.48258 9.99984C4.48266 10.4277 4.34716 10.8445 4.09554 11.1906L3.38999 12.16C3.18009 12.4484 3.05839 12.7914 3.03965 13.1476C3.02092 13.5038 3.10595 13.8577 3.28443 14.1665C3.46286 14.4753 3.72696 14.7258 4.04476 14.8877C4.36257 15.0495 4.72047 15.1158 5.07517 15.0785L6.26684 14.9517C6.6924 14.907 7.12119 14.9981 7.49184 15.2119C7.86228 15.4257 8.15535 15.7515 8.32888 16.1424Z" stroke="black" stroke-width="1.67" stroke-linecap="round" stroke-linejoin="round"/>
<path d="M10.4996 12.4998C11.8803 12.4998 12.9996 11.3805 12.9996 9.99984C12.9996 8.61913 11.8803 7.49984 10.4996 7.49984C9.1189 7.49984 7.99961 8.61913 7.99961 9.99984C7.99961 11.3805 9.1189 12.4998 10.4996 12.4998Z" stroke="black" stroke-width="1.67" stroke-linecap="round" stroke-linejoin="round"/>
</svg>
