<svg width="100%" height="100%" viewBox="0 0 20 20" fill="none" xmlns="http://www.w3.org/2000/svg">
    <path d="M14.9175 4.16542C15.0891 4.58044 15.4185 4.91033 15.8332 5.08256L17.2875 5.68498C17.7026 5.8569 18.0323 6.18666 18.2042 6.60171C18.3762 7.01677 18.3762 7.48312 18.2042 7.89817L17.6023 9.3515C17.4303 9.76674 17.43 10.2336 17.6028 10.6486L18.2037 12.1015C18.289 12.3071 18.3328 12.5274 18.3329 12.75C18.3329 12.9725 18.2891 13.1929 18.2039 13.3985C18.1188 13.6041 17.994 13.7909 17.8366 13.9482C17.6792 14.1055 17.4924 14.2303 17.2867 14.3154L15.8335 14.9174C15.4185 15.089 15.0886 15.4184 14.9164 15.8331L14.314 17.2875C14.142 17.7026 13.8123 18.0323 13.3973 18.2043C12.9822 18.3762 12.5159 18.3762 12.1009 18.2043L10.6476 17.6023C10.2325 17.4308 9.76636 17.4311 9.35157 17.6032L7.89725 18.2048C7.48244 18.3763 7.01651 18.3762 6.60181 18.2044C6.18711 18.0326 5.85755 17.7032 5.68551 17.2886L5.08294 15.8338C4.91134 15.4188 4.58196 15.0889 4.16721 14.9167L2.71289 14.3143C2.29803 14.1424 1.96838 13.8129 1.79641 13.3981C1.62443 12.9832 1.62419 12.5171 1.79576 12.1021L2.39772 10.6488C2.56922 10.2337 2.56887 9.76754 2.39675 9.35273L1.79565 7.89732C1.71042 7.69175 1.66654 7.4714 1.6665 7.24886C1.66647 7.02632 1.71028 6.80596 1.79544 6.60036C1.8806 6.39476 2.00543 6.20796 2.16281 6.05062C2.32019 5.89329 2.50702 5.76851 2.71264 5.68342L4.16592 5.08143C4.58056 4.90997 4.91024 4.581 5.08259 4.16671L5.68499 2.71234C5.8569 2.29728 6.18665 1.96753 6.60169 1.7956C7.01673 1.62368 7.48306 1.62368 7.8981 1.7956L9.35138 2.39759C9.76643 2.56909 10.2326 2.56874 10.6474 2.39662L12.1023 1.79654C12.5173 1.62471 12.9835 1.62475 13.3985 1.79664C13.8134 1.96852 14.1431 2.29819 14.3151 2.71313L14.9177 4.16794L14.9175 4.16542Z"
          fill="#1A40FF"/>
    <path d="M7.5 10L9.16667 11.6667L12.9167 7.91669" stroke="white" stroke-width="1.67" stroke-linecap="round"
          stroke-linejoin="round"/>
</svg>


