<svg width="100%" height="100%" viewBox="0 0 16 12" fill="none" xmlns="http://www.w3.org/2000/svg">
<path d="M13.1652 1.33345C14.1101 2.64694 14.6666 4.25854 14.6666 6.00011C14.6666 7.74169 14.1101 9.35329 13.1652 10.6668M10.4968 3.33345C11.024 4.08934 11.3333 5.00862 11.3333 6.00011C11.3333 6.99161 11.024 7.91089 10.4968 8.66678M6.4228 1.57724L4.31234 3.68769C4.19704 3.803 4.13939 3.86065 4.07211 3.90187C4.01246 3.93843 3.94743 3.96536 3.87941 3.98169C3.80268 4.00011 3.72115 4.00011 3.55809 4.00011H2.39992C2.02655 4.00011 1.83987 4.00011 1.69726 4.07278C1.57182 4.13669 1.46983 4.23868 1.40591 4.36412C1.33325 4.50673 1.33325 4.69341 1.33325 5.06678V6.93345C1.33325 7.30682 1.33325 7.4935 1.40591 7.63611C1.46983 7.76155 1.57182 7.86354 1.69726 7.92745C1.83987 8.00011 2.02655 8.00011 2.39992 8.00011H3.55809C3.72115 8.00011 3.80268 8.00011 3.87941 8.01853C3.94743 8.03487 4.01246 8.0618 4.07211 8.09835C4.13939 8.13958 4.19704 8.19723 4.31234 8.31253L6.4228 10.423C6.70838 10.7086 6.85117 10.8514 6.97377 10.861C7.08014 10.8694 7.18409 10.8263 7.25339 10.7452C7.33325 10.6517 7.33325 10.4497 7.33325 10.0459V1.95436C7.33325 1.55048 7.33325 1.34855 7.25339 1.25504C7.18409 1.1739 7.08014 1.13084 6.97377 1.13921C6.85117 1.14886 6.70838 1.29165 6.4228 1.57724Z" stroke="#344054" stroke-width="1.67" stroke-linecap="round" stroke-linejoin="round"/>
</svg>
